# xmcd
#
# Track frame offsets:
# 150
# 2307
# 14612
# 32697
# 51356
# 64347
# 83300
# 103109
# 111196
# 131105
# 142924
# 158891
# 170648
# 189538
# 207870
# 232212
# 250236
# 272754
# 296150
# 313859
# 332700
#
# Disc length: 4694 seconds
#
#
# Revision: 0
# Processed by: cddbd v1.5.2PL0 Copyright (c) Steve Scherf et al.
# Submitted via: FreeRIP 2.951 
#
DISCID=34125415
DTITLE=Roots vs Masta Killa - SL Vol28 cd1 Roots vs Masta Killa
DYEAR=1900
DGENRE=Hip-Hop
TTITLE0=Dilltastic
TTITLE1=False Media
TTITLE2=Game Theory(Malik B)
TTITLE3=In The Music
TTITLE4=Take It There
TTITLE5=Here I Come
TTITLE6=Long Time
TTITLE7=Livin In A New World(John John)
TTITLE8=Clock With No Hands
TTITLE9=Atonement
TTITLE10=Then And Now
TTITLE11=ENY House
TTITLE12=Nehanda And Cream
TTITLE13=Pass The Bone Remix
TTITLE14=Older Gods Part Two
TTITLE15=Lets Get Into Something
TTITLE16=Easy MCs
TTITLE17=Lovely Lady
TTITLE18=A Dead Mouse(Vik V)
TTITLE19=Kick A Dope Verse(Cenobites)
TTITLE20=Rhymes I Sniff Carlos Died(Cenobites)
EXTD=
EXTT0=
EXTT1=
EXTT2=
EXTT3=
EXTT4=
EXTT5=
EXTT6=
EXTT7=
EXTT8=
EXTT9=
EXTT10=
EXTT11=
EXTT12=
EXTT13=
EXTT14=
EXTT15=
EXTT16=
EXTT17=
EXTT18=
EXTT19=
EXTT20=
PLAYORDER=
